<?xml version="1.0" encoding="utf-8"?>
<!-- Generator: Adobe InDesign 5.0 SVG Export Plug-in, SVG Library version: 6.0 build 100 -->
<!DOCTYPE svg PUBLIC "-//W3C//DTD SVG 1.1//EN" "http://www.w3.org/Graphics/SVG/1.1/DTD/svg11.dtd">
<svg version="1.1" xmlns="http://www.w3.org/2000/svg" xmlns:xlink="http://www.w3.org/1999/xlink" x="0pt" y="0pt"
	 width="595.276pt" height="841.89pt" xml:space="preserve">
<clipPath id="clp1" fill="none">
	<path shape-rendering="crispEdges" stroke="#000000" d="M0,0h595.276v841.89H0z"/>
</clipPath>
<g clip-path="url(#clp1)" fill="none">
	<g transform="matrix(1 0 0 1 298.576 406.0574)">
		<path fill-rule="evenodd" fill="#ED2225" d="M-123.878,171.361c0.031-1.348,0.063-2.696,0.094-4.043
			c5.265-0.031,10.531-0.063,15.796-0.094c-0.094-0.125-0.188-0.251-0.282-0.376c-7.446-2.688-12.538-8.981-14.668-17.019
			c-0.968-3.651-0.752-8.269-0.752-12.787c-0.001-14.17,1.22-23.614,11.847-27.173c-0.337-1.179-2.104-1.264-3.009-1.881
			c-1.583-1.078-4.16-3.031-4.795-4.983c-0.514,0.05-0.475-0.018-0.846-0.282c-0.721-2.037-1.442-4.075-2.163-6.112
			c-0.907-4.329-0.709-10.888,0-15.232c0.125-1.849,0.251-3.699,0.376-5.548c0.39-1.851,1.25-3.625,1.692-5.736
			c1.587-0.743,3.12-3.878,4.513-5.171c2.385-2.216,5.92-4.156,9.214-5.359c3.116-1.138,6.375-0.753,10.061-1.316
			c2.754-0.421,6.569-0.319,9.214,0.188c2.423,0.464,4.475,0.297,6.676,1.034c7.332,2.455,12.747,7.067,15.42,14.198
			c1.158,3.09,0.562,6.983,1.128,10.907c0.525,3.637,0.461,9.789-0.564,13.069c-1.143,3.658-3.273,6.959-6.018,9.026
			c-1.285,0.968-3.861,1.64-4.701,3.009c0.737,1.219,3.645,1.823,4.889,2.539c2.32,1.334,4.55,4.448,5.642,6.77
			c1.656,3.521,0.909,8.513,1.504,12.975c0.341,2.558,0.607,6.426,0.094,9.026c0,1.003,0,2.006,0,3.009
			c-0.406,2.358-0.397,4.657-1.034,6.77c-2.395,7.937-7.629,13.822-15.42,16.36c0.031,0.063,0.063,0.125,0.094,0.188
			c9.59,0,19.182,0,28.772,0c2.527,0,10.233,0.56,11.941-0.188c-0.063,0-0.125,0-0.188,0c-1.381-1.277-3.98-1.812-5.547-2.821
			c-3.486-2.244-6.494-5.859-8.274-9.779c-3.814-8.397-2.444-24.256-2.445-36.012c0-8.273,0-16.549,0-24.823
			c0-4.283-0.432-8.968,0.282-12.881c0.858-4.705,2.198-8.927,4.513-12.223c2.967-4.225,8.226-7.683,13.822-9.214
			c2.35-0.345,4.701-0.69,7.052-1.034c0.265-1.104-2.243-5-2.821-6.112c-1.442-3.071-2.884-6.143-4.325-9.214
			c-0.511-0.969-1.67-1.93-2.069-2.821c-0.645-1.44-0.693-2.985-1.316-4.325c-0.251,0.094-0.502,0.188-0.752,0.282
			c-0.32-2.44-1.002-3.931-2.257-5.359c-2.754-7.525-5.658-14.181-7.898-22.19c-0.302-1.081-1.264-2.197-1.504-3.103
			c0.031-0.439,0.063-0.878,0.094-1.316c-0.439-2.225-0.878-4.451-1.316-6.676c-0.05,0.273,0.075,0.46-0.188,0.282
			c-0.251-1.097-0.502-2.194-0.752-3.291c-0.664-3.934-0.224-7.847-0.846-11.471c-0.251-3.698-0.502-7.397-0.752-11.095
			c-0.799-3.936-1.598-8.139-1.598-13.069c0-1.16,0-2.319,0-3.479c0.78-4.221,1.259-8.17,2.351-12.035
			c0.376-1.33,1.428-3.627,0.94-5.453c-0.376-0.971-0.752-1.943-1.128-2.915c-0.313-0.188-0.627-0.376-0.94-0.564
			c-0.54-0.893-0.573-6.863-0.282-8.274c0.338-1.639,2.315-2.608,2.633-4.419c0.328-1.873-2.127-3.203-2.539-4.607
			c-0.157-1.034-0.313-2.069-0.47-3.103c-0.564-2.162-1.128-4.325-1.692-6.488c-0.422-2.391,0.039-4.356-0.47-6.3
			c-0.721,0-1.442,0-2.163,0c0.078,1.331,1.839,4.441,0.376,6.112c-2.046,0.381-7.962-0.399-9.308-1.222
			c0.063-1.379,0.125-2.758,0.188-4.137c0.764-0.127,1.694-0.309,2.069-0.846c0.236-0.351,0.239-1.655,0-2.163
			c-0.442-0.778-1.591-0.895-1.975-1.786c-0.094-0.877-0.188-1.755-0.282-2.633c-0.399-1.362-0.946-3.312-1.222-4.701
			c0.031-0.47,0.063-0.94,0.094-1.41c-0.226-0.45-0.713-0.759-0.846-1.504c-0.215-1.197,0.5-1.6,0.564-2.633
			c-4.474,0.134-5.685-0.1-6.112-3.949c-0.098-0.888-0.215-2.292,0-2.821c4.387-1.316,8.776-2.633,13.164-3.949
			c3.259-17.142,6.519-34.29,9.779-51.432c0.658-3.855,1.316-7.71,1.975-11.565c2.211-10.172,3.681-21.038,6.018-31.122
			c1.616-6.976,2.566-14.156,3.949-20.968c1.359-6.692,1.505-12.169,5.547-16.172c0.063,0,0.125,0,0.188,0
			c0.768,1.449,1.609,3.4,1.881,5.171c-1.285,8.179-2.57,16.361-3.855,24.541c-3.792,24.601-7.585,49.209-11.377,73.81
			c-1.066,6.769-2.131,13.54-3.197,20.309c-0.29,1.494-1.506,6.517-1.034,7.616c1.59,0.339,10.772,3.193,11.471,3.949
			c1.26,1.362-0.128,5.277-0.752,6.206c-1.5,0.048-10.934,0.475-11.565,0.94c1.036,3.287,4.121,3.996,5.83,6.488
			c2.068,2.507,4.137,5.015,6.206,7.522c0.96,1.389,2.023,4.126,3.197,5.171c0.675-0.171,5.215-2.296,5.453-2.727
			c0.298-1.135-0.774-12.523-1.222-13.164c-0.63-0.727-2.033-0.85-2.445-1.786c-0.703-1.601-0.785-3.683-1.034-5.642
			c0-0.909,0-1.818,0-2.727c-0.376-0.125-0.752-0.251-1.128-0.376c-0.063-1.88-0.125-3.761-0.188-5.642
			c-0.536-1.733-1.656-2.662-0.752-5.453c0.904-2.793,2.784-3.034,4.983-4.513c0.313-0.533,0.627-1.066,0.94-1.598
			c0.627-0.313,1.254-0.627,1.881-0.94c0.439-0.721,0.878-1.442,1.316-2.163c0.696-0.602,1.888-0.588,2.539-1.222
			c1.191-1.162,1.997-2.695,3.573-3.479c1.696-0.844,3.913-0.56,6.112-0.94c2.245-0.389,4.907-0.863,6.582,0.188
			c0.222,0.74,0.134,1.669,0.282,2.539c0.188,0,0.376,0,0.564,0c1.159-0.632,2.647-1.884,3.949-0.94
			c0.629,4.178-1.247,4.841-3.855,6.3c0.217,1.606,2.723,1.516,3.855,2.257c0.971,1.034,1.943,2.069,2.915,3.103
			c1.442-0.125,2.884-0.251,4.325-0.376c0.846,0.219,1.693,0.439,2.539,0.658c1.036-0.155,1.384-1.291,2.727-0.846
			c0.23,0.672,0.468,0.957,0.47,1.975c-0.448,0.91-1.065,1.028-1.692,1.692c0,0.125,0,0.251,0,0.376
			c0.125,0.125,0.251,0.251,0.376,0.376c1.341-0.05,3.797-0.165,4.137,0.752c0.372,1.002-2.131,1.923-2.445,2.633
			c-0.549,1.358,0.617,2.153,0.658,3.667c-0.564,0.533-1.128,1.066-1.692,1.598c-1.787,0.802-11.182,1.695-6.77,5.265
			c3.385-1.88,6.77-3.761,10.155-5.642c7.797-3.947,15.162-8.297,21.908-13.352c4.481-3.604,8.964-7.209,13.446-10.813
			c11.691-8.1,25.031-14.538,36.482-22.942c0.972-0.815,1.943-1.63,2.915-2.445c1.27-1.642,2.054-3.697,3.761-4.889
			c3.283-2.294,7.812-3.342,10.813-5.924c2.137-1.838,5.579-6.542,9.308-3.761c0.451,5.912-6.966,5.887-7.24,10.531
			c0.094,0.063,0.188,0.125,0.282,0.188c1.013,0.538,3.811,0.693,4.889,0.282c2.522-1.288,3.559-4.533,6.77-5.265
			c0.787,1.471-0.731,2.421-0.846,3.479c2.136-0.077,6.154-2.729,8.18-2.069c0.723,0.398,0.493,0.923,1.692,0.94
			c1.114-0.606,7.437-2.556,4.701,1.222c-1.053,0.449-5.18,2.563-5.736,3.385c1.644-0.087,6.4-1.84,6.676,0.564
			c-3.368,2.13-8.646,3.402-12.787,4.607c-1.661,0.313-3.322,0.627-4.983,0.94c-3.392,1.664-7.276,3.169-10.719,4.513
			c-1.912,0.564-3.824,1.128-5.736,1.692c-1.872,1.041-3.186,2.587-4.795,3.855c-5.35,4.215-10.403,9.376-14.762,14.574
			c-1.498,1.787-3.093,3.889-4.889,5.359c-6.16,5.044-14.146,8.26-20.497,13.07c-2.104,1.593-2.904,4.02-4.513,6.112
			c-3.29,4.277-7.505,7.746-10.907,11.941c0.185,1.014,1.93,4.85,2.633,5.265c3.237-1.022,7.067-1.206,10.625-1.88
			c1.348-0.031,2.696-0.063,4.043-0.094c2.1,0,4.2,0,6.3,0c2.088,0.381,4.248-0.155,6.018,0.376
			c1.786,0.188,3.573,0.376,5.359,0.564c4.293,0.909,8.588,1.818,12.881,2.727c4.074,1.41,8.149,2.821,12.223,4.231
			c1.903,0.701,3.689,2.346,6.112,1.692c-0.049,0.587-0.046,0.627,0.188,1.034c3.558,0.551,7.552,3.399,9.779,5.453
			c0.203,4.32-3.735,5.087-4.513,8.744c-0.886,4.165,7.365,5.639,3.855,10.907c-1.222,0.188-2.445,0.376-3.667,0.564
			c-0.738,0.408-1.93,3.642-2.539,4.513c-1.226,1.753-3.366,3.437-5.171,4.607c-2.299,1.489-5.33,2.653-8.18,3.479
			c-1.831,0.531-3.496,0.565-4.983,1.41c-1.54,0.875-2.775,3.4-1.598,5.359c2.617,4.361,6.896-0.268,9.497,0.564
			c2.854,1.391-0.761,5.747-1.786,6.488c-4.426,3.197-10.459,5.265-17.959,5.265c-9.972,0.001-21.686-0.491-27.925-4.701
			c-2.753-1.858-5.203-4.024-7.804-6.018c-1.252-0.959-2.455-2.79-5.077-2.069c-5.653,1.555,0.181,7.19-1.316,10.249
			c-1.156,2.361-7.828,4.571-10.249,6.206c-0.516,2.732,2.996,7.222,4.231,9.309c4.7,7.936,10.164,15.132,15.138,22.66
			c2.328,3.524,4.839,6.79,7.428,10.061c1.08,1.364,2.19,3.004,3.385,4.325c0.407,0.313,0.815,0.627,1.222,0.94
			c2.727,5.485,6.933,10.365,10.249,15.42c0.345,0.783,0.69,1.567,1.034,2.351c5.867,9.018,10.949,18.844,16.454,28.302
			c2.382,4.669,4.764,9.34,7.146,14.01c1.426,2.122,2.528,4.4,3.855,6.676c2.108,3.614,4.937,6.972,7.052,10.625
			c0.809,1.397,2.268,2.734,3.197,4.043c3.544,4.993,6.792,9.855,10.343,14.762c0.407,0.282,0.815,0.564,1.222,0.846
			c0,0.282,0,0.564,0,0.846c0.241,0.756,1.156,1.053,1.598,1.598c0.188,0.627,0.376,1.254,0.564,1.88
			c0.345,0.157,0.69,0.313,1.034,0.47c0.658,0.94,1.316,1.881,1.975,2.821c1.283,1.824,6.697,7.496,5.171,9.967
			c-0.971,0.533-1.943,1.066-2.915,1.598c-2.203,0.754-7.504,1.585-8.462,3.291c-1.069,1.904-0.975,5.912-0.47,8.65
			c1.187,6.431,2.635,12.787,4.701,18.335c0.581,1.56,0.959,4.408,2.069,5.547c1.41,0.031,2.821,0.063,4.231,0.094
			c-0.031,1.316-0.063,2.633-0.094,3.949C37.101,171.361-43.401,171.361-123.878,171.361 M-39.538-254.761
			c-1.88,3.016-2.12,7.155-3.009,11.377c-1.33,6.322-2.126,12.705-3.573,19.181c-4.293,23.003-8.588,46.012-12.881,69.014
			c-1.429,6.699-2.213,13.341-3.667,19.839c-0.685,3.062-0.549,7.361-1.786,9.967c-4.212,1.39-8.905,2.609-13.07,3.855
			c-0.007,0.9,0.111,3.129,0.658,3.573c0.845,0.509,5.418-0.125,6.864-0.188c5.514-0.241,11.529-0.359,16.736,0.47
			c1.103,0.176,6.442,0.292,6.676,0c0.526-0.934,1.424-3.122,1.128-4.325c-3.698-1.16-7.397-2.319-11.095-3.479
			c-1.663-0.228-4.233,2.87-6.018,2.633c0-0.031,0-0.063,0-0.094c5.954-33.72,11.91-67.451,17.865-101.171
			c1.348-7.647,2.696-15.296,4.043-22.942C-40.423-248.138-39.332-254.508-39.538-254.761 M102.064-185.747
			c-0.658,0.407-1.316,0.815-1.975,1.222c-2.141,1.738-4.017,3.847-6.488,5.265c-2.7,1.551-5.69,2.288-8.086,4.043
			c-1.309,0.959-1.757,2.73-2.727,4.043c-1.548,2.096-4.729,3.846-6.864,5.359c-10.06,6.142-20.122,12.287-30.182,18.429
			c-6.57,4.371-12.081,10-18.523,14.48c-4.199,2.92-9.87,5.476-13.634,8.744c-0.617,5.756-0.538,13.43,5.265,13.446
			c0.59-0.915,1.865-1.591,2.727-2.257c3.134-3.008,6.269-6.018,9.403-9.026c2.941-3.078,4.836-7.403,8.18-10.061
			c14.623-11.622,30.948-21.514,44.474-34.225c1.19-1.119,3.219-1.333,4.889-1.975c2.252-0.865,4.156-2.619,6.676-3.385
			c1.537-0.467,5.348-1.442,5.736-2.727c-0.627,0.063-1.254,0.125-1.881,0.188c-1.262-0.271-5.081-2.178-5.171-3.009
			c3.252-2.267,5.538-5.767,8.932-7.992c-0.031-0.188-0.063-0.376-0.094-0.564C102.503-185.747,102.284-185.747,102.064-185.747
			 M115.792-178.695c-1.944,1.076-8.984,1.942-9.497,3.855c0.031,0.031,0.063,0.063,0.094,0.094
			c1.781-0.099,8.474-2.422,9.685-3.291C116.038-178.502,116.061-178.487,115.792-178.695 M26.28-92.662
			c-0.094-0.251-0.188-0.502-0.282-0.752c-1.097-0.627-2.194-1.254-3.291-1.88c-1.598-0.501-3.197-1.003-4.795-1.504
			c-6.677-1.659-13.372-1.833-18.523-4.795c-1.172-0.674-2.083-1.807-3.103-2.633c-0.899-0.728-4.849-3.603-5.077-4.513
			c0.063,0,0.125,0,0.188,0c3.125-1.41,4.965,1.355,6.3,2.445c1.831,1.496,4.584,2.651,7.804,2.445c0-0.094,0-0.188,0-0.282
			c-2.215-3.193-3.855-7.57-0.846-11.471c0.031,0,0.063,0,0.094,0c0.634,2.34,1.718,5.89,3.667,6.958
			c0.125-0.031,0.251-0.063,0.376-0.094c0.447-3.02,0.603-6.833,1.316-10.061c0.407-1.379,0.815-2.758,1.222-4.137
			c-0.031-0.063-0.063-0.125-0.094-0.188c-6.003,3.334-12.369,6.475-17.959,10.249c-1.704,1.151-3.301,2.573-4.983,3.855
			c-1.085,0.828-1.764,2.513-3.197,3.009c-1.225,0.424-2.614-0.306-3.385-0.752c-2.077-1.203-10.909-4.858-11.659-6.394
			c0-0.157,0-0.313,0-0.47c0.533-1.064,2.043-0.372,3.291-0.564c0.371-0.486,1.101-1.498,0.752-2.351
			c-0.063-0.094-0.125-0.188-0.188-0.282c-0.911,0.017-1.645,0.096-2.257-0.094c0-0.345,0-0.69,0-1.034
			c1.298-0.458,3.365-0.374,4.513-0.846c0-0.188,0-0.376,0-0.564c-1.583-0.17-4.149,0.027-5.265-0.658
			c-0.646-2.025,0.033-5.053,1.786-5.736c1.244-0.484,3.426,0.432,4.231-0.282c-0.166-0.282-0.165-0.313-0.47-0.47
			c-1.435-0.402-3.396,0.077-4.889-0.188c-0.205-0.676,0.041-1.621,0.376-2.069c0.909-1.007,2.466-0.945,3.667-1.222
			c-0.008-0.916-0.323-2.228-0.752-2.633c-0.031,0-0.063,0-0.094,0c-0.048,0.513,0.038,0.411-0.376,0.564c0-0.063,0-0.125,0-0.188
			c-0.063-1.536-0.125-3.072-0.188-4.607c0.784,0.125,1.746,0.263,2.539-0.094c2.142-1.179,1.511-3.767-0.658-4.513
			c-1.748-0.601-4.09,0.283-5.547,0.564c0.063-0.125,0.125-0.251,0.188-0.376c0.434-0.954,1.836-1.545,1.504-2.633
			c1.777,0.237,2.715-1.497,3.949-2.351c1.474-1.02,3.784-1.181,6.018-1.41c-0.817-0.587-7.076,0.411-7.992,0.752
			c-2.084,0.776-3.007,2.89-4.607,4.137c-0.909,0.564-1.818,1.128-2.727,1.692c-0.188,0.533-0.376,1.066-0.564,1.598
			c-0.564,0.188-1.128,0.376-1.692,0.564c-0.313,0.501-0.627,1.003-0.94,1.504c-2.263,1.485-5.206,2.025-5.265,5.642
			c2.009-0.623,2.43-3.891,5.265-4.419c0,0.094,0,0.188,0,0.282c-0.533,1.379-1.066,2.758-1.598,4.137
			c-0.407,0.313-0.815,0.627-1.222,0.94c-0.249,0.419-0.82,3.573-0.752,3.855c0.486-0.023,0.424-0.068,0.752,0.094
			c0,0.752,0,1.504,0,2.257c0.73,2.149,2.577,2.371,0.094,5.077c-0.019,0.844,0.116,1.306,0.282,1.881
			c0.094-0.188,0.188-0.376,0.282-0.564c0.031,0,0.063,0,0.094,0c-0.005,3.032,1.728,1.538,2.821,2.727
			c0.744,1.364,0.372,3.588,0.658,5.359c0.345,4.293,0.69,8.588,1.034,12.881c-1.539,0.798-8.253,4.546-9.685,4.231
			c-0.634-4.812-7.124-15.198-10.907-16.736c-3.29,0.38-3.466,2.905-5.453,3.573c-1.274-2.389-1.202-9.356-3.103-10.719
			c-2.959-2.122-9.325,1.018-8.932,3.855c0.063,0.031,0.125,0.063,0.188,0.094c1.153-0.463,2.978-2.283,4.419-1.881
			c0.564,1.128,1.128,2.257,1.692,3.385c0.758,1.138,2.279,1.75,3.385,2.539c0.34,3.49,0.085,5.4,1.881,7.616
			c0.994,1.226,2.28,0.259,2.915,2.539c0.125,1.88,0.251,3.761,0.376,5.641c0.752,3.353,1.504,6.707,2.257,10.061
			c1.191,1.222,2.382,2.445,3.573,3.667c-0.286,2.334-4.593,4.966-3.667,7.616c2.276-0.067,4.693-1.271,6.864-0.564
			c0.056,3.635-2.618,6.197-3.761,8.932c-0.869,2.08-0.91,4.459-1.786,6.77c-1.298,3.424-2.624,9.054-2.633,13.352
			c0.094,0,0.188,0,0.282,0c1.17-3.385,2.389-7.309,4.325-10.061c4.078-5.795,9.745-10.087,14.668-15.044
			c8.818-8.879,17.073-18.777,29.148-24.352c2.1,1.755,4.2,3.51,6.3,5.265c3.406,2.427,7.081,4.938,10.813,6.958
			c1.573,0.851,3.174,1.609,4.701,2.351c0.778,0.378,1.639-0.242,1.975,0.376c-0.094,0.063-0.188,0.125-0.282,0.188
			c1.072,1.213,3.125,1.33,4.795,1.975c2.598,1.002,5.437,2.196,8.368,3.197c7.574,2.586,16.067,3.925,24.447,6.018
			c3.666,0.916,7.972,1.141,11.565,1.786c1.066,0.063,2.131,0.125,3.197,0.188c2.392,0.6,5.474,1.446,7.992,2.351
			c1.015,0.365,1.969,1.058,3.291,1.128c1.675-2.341,9.965-7.819,13.258-8.556c1.234-0.276,3.109-0.583,4.607-0.282
			c0.982,0.197,3.116,1.282,3.667,0.94c-1.604-4.35-6.538-4.622-11.753-5.453c-1.598,0-3.197,0-4.795,0
			c-2.225,0.031-4.451,0.063-6.676,0.094c-2.737,0.418-6.149,0.808-9.026,0.376c-2.618-0.393-4.972-0.697-7.052-1.41
			c-1.125-0.386-6.528-1.751-6.864-2.445c0.125-0.063,0.251-0.125,0.376-0.188c-0.031-0.063-0.063-0.125-0.094-0.188
			c-1.003-0.031-2.006-0.063-3.009-0.094c-4.228-1.049-11.01-2.873-16.736-1.975c-3.165,0.313-6.331,0.627-9.497,0.94
			c-1.156,0.23-3.037,0.91-4.137,0.658c0-0.157,0-0.313,0-0.47c1.191-0.689,2.382-1.379,3.573-2.069
			c2.46-1.122,5.393-1.815,8.18-2.445c3.165-0.407,6.331-0.815,9.497-1.222c2.319-0.125,4.639-0.251,6.958-0.376
			c-0.124-0.36,0-0.196-0.282-0.376c-2.469-1.416-7.888-1.343-11.565-1.222c-7.38,0.241-15.513,1.155-22.66,0
			c-6.957-1.124-13.365-1.967-18.241-5.077c-2.032-1.296-4.29-2.686-6.018-4.325c-1.037-0.984-1.719-2.063-3.009-2.821
			c-0.243-2.096-1.282-3.316-1.786-5.171c0.125-0.094,0.251-0.188,0.376-0.282c0.857,0.582,0.961,1.993,1.504,2.351
			c3.58,2.359,6.149,5.23,10.343,7.052c1.267,0.55,3.382,1.78,5.171,1.316c0-0.125,0-0.251,0-0.376
			c-0.501-0.47-1.003-0.94-1.504-1.41c0.063-0.063,0.125-0.125,0.188-0.188c2.663,1.064,5.982,0.935,9.214,1.504
			C15.977-93.38,21.416-92.723,26.28-92.662 M-27.408-137.324c0.125,0.063,0.251,0.125,0.376,0.188
			c-0.212,1.007-0.737,1.432-1.034,2.257c-0.317,0.877,0.066,1.848,0,2.633c-0.125,1.471-1.859,3.53-3.479,3.573
			c-0.425-0.268-1.087-0.457-1.41-0.846c0-0.094,0-0.188,0-0.282c0.063-0.063,0.125-0.125,0.188-0.188
			c0.875-0.029,0.963-0.006,1.504,0.282c0.063-0.031,0.125-0.063,0.188-0.094c0-0.094,0-0.188,0-0.282
			c-3.206-2.923-2.406,1.683-4.137,3.103c-0.178-0.129-0.154-0.092-0.282-0.282c-0.436-0.753-0.4-2.009-0.188-2.915
			c0.947-4.054,2.191-2.706,5.077-4.419c0-0.031,0-0.063,0-0.094c-0.15-0.254-0.032-0.13-0.282-0.282
			c-1.288-0.489-2.979,0.537-4.419,0.658c0-0.031,0-0.063,0-0.094c1.089-1.915,4.526-2.586,7.334-1.692
			C-27.784-136.509-27.596-136.916-27.408-137.324 M-31.263-133.187c-1.421,0.647-2.278,0.728-2.915,2.163
			c0.031,0.063,0.063,0.125,0.094,0.188c0.838-0.466,2.757-1.357,3.291-2.163c-0.063-0.063-0.125-0.125-0.188-0.188
			C-31.075-133.187-31.169-133.187-31.263-133.187 M-38.597-119.083c0.186,0.267,0.138,0.185,0.094,0.564c-0.031,0-0.063,0-0.094,0
			C-38.597-118.707-38.597-118.895-38.597-119.083 M-69.156-112.219c-1.45,0.59-2.494,1.27-1.786,2.915
			c0.823-0.238,2.719-1.072,3.291-1.692c0-0.251,0-0.502,0-0.752c-0.219-0.125-0.439-0.251-0.658-0.376
			C-68.591-112.156-68.873-112.188-69.156-112.219 M-68.685-109.022c-0.533,0.282-1.066,0.564-1.598,0.846
			c-0.203,0.657-0.37,1.399-0.282,2.163c0.125,0.031,0.251,0.063,0.376,0.094c1.086-0.389,2.211-0.99,3.009-1.692
			c0-0.313,0-0.627,0-0.94c-0.157-0.157-0.313-0.313-0.47-0.47C-67.996-109.022-68.341-109.022-68.685-109.022 M-67.745-105.919
			c-0.769,0.37-1.61,0.361-2.069,1.034c-0.236,0.383-0.227,1.156,0,1.598c0.063,0.125,0.125,0.251,0.188,0.376
			c1.071-0.13,2.718-0.73,3.103-1.598c0.166-0.545,0.033-0.946-0.188-1.316C-67.056-105.857-67.4-105.888-67.745-105.919
			 M-15.185-103.475c0.219,0.031,0.439,0.063,0.658,0.094c0.147,1.5,1.806,5.76,2.539,6.77c0.654,0.901,1.376,0.89,1.975,2.257
			C-19.82-90.021-27.463-84.19-35.4-78.088c-1.616,1.242-2.99,3.027-4.607,4.231c-0.38,0.283-1.019,0.246-1.41,0.564
			c-0.125,0.345-0.251,0.69-0.376,1.034c-0.658,0.439-1.316,0.878-1.975,1.316c-0.77,0.819-1.041,1.865-2.163,2.351
			c0-0.031,0-0.063,0-0.094c0.918-1.966,1.915-3.53,2.445-5.736c1.244-0.161,2.096-2.551,2.069-4.043
			c1.129-0.289,2.016-1.759,1.881-2.915c-0.031-0.031-0.063-0.063-0.094-0.094c-1.084,0.153-2.019,0.798-2.821,0.47
			c-0.031-0.063-0.063-0.125-0.094-0.188c0.332-1.311,0.764-2.755,1.222-4.231c1.524-0.515,1.198-1.48,1.975-2.727
			c0.061-0.098,4.198-3.047,4.513-3.197c3.233-1.544,7.583-1.53,11.095-2.915c3.539-1.396,4.51-4.091,6.488-7.052
			C-16.564-102.033-15.875-102.754-15.185-103.475 M-66.053-101.782c-0.439,0.094-0.878,0.188-1.316,0.282
			c-0.908,2.364,0.254,2.92-1.881,4.325c-0.059,0.848-0.33,1.768-0.094,2.633c2.188,0.072,3.964,0.682,6.112,0.282
			c-0.032-1.566,0.027-6.94-0.564-7.334C-64.298-101.855-65.278-101.803-66.053-101.782 M64.83-101.312
			c-0.063,0.031-0.125,0.063-0.188,0.094c0.104,0.738,0.433,0.658,0.752,1.128c-4.158,0.065-12.658,2.097-15.608,3.667
			c0,0.094,0,0.188,0,0.282c0.031,0.031,0.063,0.063,0.094,0.094c9.278-0.073,20.075-0.814,28.019,1.41
			c1.598,0.251,3.197,0.502,4.795,0.752c0.516,0.153,0.487,0.643,0.846,0.846c1.425,0.805,3.882,0.711,5.359,1.41
			c0.282,0.282,0.564,0.564,0.846,0.846c1.211,0.766,7.522,3.647,8.838,3.761c1.254-0.564,2.507-1.128,3.761-1.692
			c-0.063-0.094-0.125-0.188-0.188-0.282c-1.641-0.571-3.215-1.522-4.419-2.539c-0.909-0.219-1.818-0.439-2.727-0.658
			c-0.407-0.213-1.584-0.59-1.975-0.94c-0.094-0.219-0.188-0.439-0.282-0.658c-0.407-0.031-0.815-0.063-1.222-0.094
			c-1.066-0.376-2.131-0.752-3.197-1.128C82.204-97.642,72.832-100.908,64.83-101.312 M-44.145-53.359
			c1.616-0.13,2.898-1.395,4.231-1.975c2.459-1.069,5.079-1.469,8.18-1.975c1.628-0.265,6.578,0.435,7.24,0
			c-1.555-1.99-8.059-3.742-11.001-4.513c0.063-0.157,0.125-0.313,0.188-0.47c3.797-0.957,9.74-1.646,14.198-0.94
			c1.583,0.251,6.819,0.978,7.992,0.658c0-0.031,0-0.063,0-0.094c-0.094-0.063-0.188-0.125-0.282-0.188
			c-1.011-2.469-4.96-1.719-6.394-3.667c-3.167-4.301,1.583-11.267,3.197-14.292c-0.031-0.157-0.063-0.313-0.094-0.47
			c-3.248,0.252-5.926,2.559-7.992,4.137c-5.601,4.278-10.494,10.185-14.668,15.89C-40.925-59.104-43.872-56.597-44.145-53.359
			 M3.056-71.412c-0.391,0.778-1.125,0.903-1.504,1.504c-0.091,0.145-0.787,4.326-0.846,4.701
			c-0.603,3.845,1.168,7.846,0.282,11.753c-0.323,1.423-1.296,2.461-1.41,4.043c2.1,2.131,4.2,4.263,6.3,6.394
			c0.795,1.042,1.828,3.19,3.103,3.667c-0.224-1.341-1.097-2.471-1.598-3.573c-1.236-2.715-1.638-5.965-2.351-9.026
			c-0.913-3.922-0.047-8.119-0.752-12.505c-0.282-2.288-0.564-4.576-0.846-6.864C3.307-71.349,3.181-71.381,3.056-71.412
			 M-29.007-55.428c-1.16,0.125-2.319,0.251-3.479,0.376c-2.006,0.439-4.012,0.878-6.018,1.316
			c-7.313,2.94-11.399,8.633-14.198,16.078c-0.922,2.453-0.829,5.33-1.316,8.18c0,1.285,0,2.57,0,3.855
			c0,3.436-0.045,6.763,0.47,9.779c0.251,3.667,0.501,7.334,0.752,11.001c0.163,0.781,0.653,1.384,0.846,1.975
			c0.251,1.442,0.501,2.884,0.752,4.325c1.057,3.829,2.133,7.639,3.291,11.283c1.017,3.201,2.05,6.24,3.385,9.12
			c0.306,0.659,1.338,2.774,0.752,3.197c0.1,0.343,0.076,0.277,0.282,0.47c0.094-0.063,0.188-0.125,0.282-0.188
			c0.407,0.815,0.815,1.63,1.222,2.445c0.319,0.822,0.262,2.289,0.658,2.727c0.157,0,0.313,0,0.47,0
			c0.407,0.752,0.815,1.504,1.222,2.257c0.157,0.783,0.313,1.567,0.47,2.351c0.251,0.157,0.501,0.313,0.752,0.47
			c0.815,1.786,1.63,3.573,2.445,5.359c1.63,3.165,3.26,6.331,4.889,9.497c1.191,2.476,2.382,4.952,3.573,7.428
			c0.943,0.566,1.879-0.177,3.197,0.094c2.975,0.612,6.066,0.405,8.838,1.034c7.556,1.716,13.058,5.766,16.642,11.471
			c0.188,0.752,0.376,1.504,0.564,2.257c3.644,5.349,3.103,14.917,3.103,23.976c-0.031,10.561-0.063,21.125-0.094,31.687
			c0.031,2.288,0.063,4.576,0.094,6.864c0.001,6.94-0.202,12.983-1.975,18.147c-0.134,0.39-0.883,1.703-1.128,1.316
			c-0.282,0.846-0.564,1.693-0.846,2.539c-1.176,2.144-3.216,4.538-5.171,5.924c-1.248,0.885-4.494,2.26-5.265,3.385
			c0,0.031,0,0.063,0,0.094c5.347,0.054,11.351-1.21,14.574-3.573c20.878-15.305,17.342-68.834,7.146-93.367
			c-1.36-3.272-2.806-6.651-4.513-9.591c-0.595-1.254-1.191-2.507-1.786-3.761c-1.249-1.786-2.412-3.561-3.385-5.642
			C2.07,50.8,2.187,50.81,1.833,50.821c-0.257-0.388-0.239-1.243-0.564-1.692c-2.846-3.93-5.844-8.62-9.591-11.659
			c-1.285-1.16-2.57-2.319-3.855-3.479c0.031-0.157,0.063-0.313,0.094-0.47c0.723-0.488,6.055,3.486,6.676,3.949
			c2.006,1.473,4.012,2.946,6.018,4.419c0.313,0.47,0.627,0.94,0.94,1.41c0.47,0.125,0.94,0.251,1.41,0.376
			c1.281,0.914,3.873,3.549,4.889,4.795c0.807,0.989,3.954,4.602,5.265,4.701c-0.332-1.605-1.638-3.098-2.445-4.325
			c-0.846-1.41-1.693-2.821-2.539-4.231c-1.781-2.577-4.201-4.785-5.736-7.616c-0.339,0.189-0.183,0.159-0.564,0.188
			c-4.546-6.73-10.289-12.273-15.796-18.053c-3.5-3.672-7.769-7.751-9.685-12.881c0.063-0.031,0.125-0.063,0.188-0.094
			c1.225,0.355,1.927,1.543,2.821,2.257c3.086,2.466,5.775,5.61,8.932,7.898c4.137,2.998,7.657,6.635,11.565,9.873
			c0.408,0.338,1.306,1.175,1.598,1.598c0.094,0.313,0.188,0.627,0.282,0.94c0.439,0.157,0.878,0.313,1.316,0.47
			c0.219,0.376,0.439,0.752,0.658,1.128c0.345,0.219,0.69,0.439,1.034,0.658c1.898,2.197,3.459,4.584,5.359,6.77
			c5.498,6.323,10.981,13.084,15.326,20.497c3.04,5.641,6.081,11.284,9.12,16.925c1.059,1.779,2.216,6.32,3.667,7.428
			c0.063-0.031,0.125-0.063,0.188-0.094c-0.313-2.507-0.627-5.015-0.94-7.522c-1.184-6.049-1.415-11.998-2.727-17.583
			c-0.896-3.812-1.211-8.006-3.385-10.531c-0.094,0-0.188,0-0.282,0c-0.031,0.094-0.063,0.188-0.094,0.282
			c-0.094,1.442-0.188,2.884-0.282,4.325c-0.251,2.1-0.501,4.2-0.752,6.3c-0.063,0.031-0.125,0.063-0.188,0.094
			c-2.392-0.209-3.071-3.309-3.949-5.077c-2.495-5.021-5.184-9.927-8.18-14.48c-3.328-5.056-7.248-10.157-11.377-14.48
			c-0.407-0.658-0.815-1.316-1.222-1.975c-0.944-1.03-2.92-2.233-3.667-3.291c-0.808-1.144-1.502-2.21-2.539-3.103
			C-7.629,9.91-14.519,3.733-19.416-3.338c-1.796-2.593-3.567-5.967-4.701-9.026c-0.345-1.097-0.69-2.194-1.034-3.291
			c-0.125,0.125-0.251,0.251-0.376,0.376c-0.45-0.569-0.901-8.241-0.658-9.12c0.031,0,0.063,0,0.094,0
			c0.031,0.031,0.063,0.063,0.094,0.094c0.999,5.899,7.128,12.756,10.531,16.642c4.253,4.857,9.331,8.924,14.48,12.881
			c6.666,5.124,13.217,10.553,19.839,15.796c2.869,2.272,7.113,6.826,9.308,9.779c1.379,1.854,2.357,4.577,4.137,6.018
			c0.031,0,0.063,0,0.094,0c-0.134-1.583-1.317-3.182-1.881-4.513c-1.77-4.181-3.326-8.26-5.453-12.035
			C21.72,14.34,18.78,7.783,15.185,1.834C10.608-5.74,4.822-12.148-0.611-18.852c-1.128-1.128-2.257-2.257-3.385-3.385
			c-2.878-3.424-5.953-6.627-8.932-9.967c-1.568-1.758-5.295-4.901-5.736-7.428c2.81,0.696,4.797,3.508,6.864,5.077
			c6.082,4.618,11.571,9.966,16.925,15.326c1.309,1.311,5.136,6.409,6.582,6.864c0-0.251,0-0.502,0-0.752
			c-0.595-2.726-1.191-5.454-1.786-8.18c-1.38-4.715-3.075-8.683-5.547-12.223c-0.705-1.01-1.043-2.711-1.975-3.479
			c-0.031,0-0.063,0-0.094,0c-0.046,0.38-0.06,0.352-0.188,0.564c-0.094-0.031-0.188-0.063-0.282-0.094
			c-1.218-3.52-3.959-6.403-6.582-8.556c-1.602-1.315-3.011-2.98-4.701-4.231C-14.031-52.706-21.169-55.4-29.007-55.428
			 M-94.26,76.584c-2.106,0.892-3.731,0.932-4.607,3.009c-0.893,2.117-0.564,5.558-0.564,8.368c0,6.112-0.756,13.907,6.394,12.693
			c1.543-0.262,3.285-0.72,4.043-1.786c1.696-2.387,1.816-18.261,0-20.592C-89.9,77.114-92.234,76.601-94.26,76.584 M-26.092,76.678
			c-1.546,0.613-2.616,0.514-3.667,1.504c-2.241,2.112-1.505,11.38-1.504,15.984c0,13.194,0,26.391,0,39.585
			c-0.001,6.705-1.592,18.208,6.206,16.925c7.162-1.179,5.454-8.709,5.453-16.642c0-14.134,0-28.272,0-42.405
			C-19.603,83.954-18.082,76.675-26.092,76.678 M61.822,77.43c0.489,3.09,2.819,6.997,4.043,9.779
			c2.351,5.342,4.715,10.209,6.77,15.796c1.129,3.071,3.231,6.393,4.137,9.685c1.035,3.759,2.315,11.891,5.736,12.975
			c1.994,0.632,5.084-0.387,6.018-1.128c0.315-0.25,0.224-0.774,0.658-0.94c0.844-0.323,1.548-0.096,2.257-0.376
			c1.818-0.752,3.636-1.504,5.453-2.257c2.166-0.824,5.353-0.976,8.18-0.94c1.034,0.031,2.069,0.063,3.103,0.094
			c0-0.094,0-0.188,0-0.282c-2.043-0.408-4.234-1.494-6.582-1.975c-6.151-1.259-12.96,3.058-17.113-0.94
			c-0.189-0.182-2.044-3.489-2.163-3.855c0.031-0.282,0.063-0.564,0.094-0.846c-0.376-0.345-0.752-0.69-1.128-1.034
			c-0.508-1.064-0.665-1.867-1.222-2.821c-4.162-7.132-8.218-14.596-12.505-21.626C66.64,85.234,62.85,77.949,61.822,77.43
			 M43.205,88.713c0.13,1.389,0.87,2.527,1.316,3.667c0.846,2.319,1.693,4.639,2.539,6.958c2.363,6.66,3.906,13.737,5.453,21.25
			c1.276,6.197,0.679,12.503,1.786,19.275c0.031,2.256,0.063,4.513,0.094,6.77c0.475,3.056-1.087,6.453-0.282,9.402
			c0.125,0,0.251,0,0.376,0c0-0.063,0-0.125,0-0.188c1.808-2.028,3.851-7.469,4.513-10.719c0.588-2.888-0.564-6.492,0.846-8.556
			c1.69-2.476,6.305-2.672,9.591-3.573c0-0.125,0-0.251,0-0.376c-1.446-2.52-4.382-3.811-5.077-6.864
			c-0.468,0.18-0.449,0.154-0.846-0.094c-0.186-0.545-0.374-1.33-0.658-1.975c-0.125,0.063-0.251,0.125-0.376,0.188
			c-0.787-2.035-2.51-3.825-3.479-5.736c-1.817-3.585-2.964-7.334-4.889-10.907c-1.849-3.291-3.699-6.582-5.547-9.873
			C47.551,95.459,44.703,89.686,43.205,88.713 M-94.542,119.271c-2.005,1.054-3.445,0.767-4.325,2.915
			c-0.705,1.72-0.061,3.966-0.376,6.112c-0.586,3.991-0.428,19.006,1.128,20.78c0.795,0.906,3.244,1.87,5.171,1.504
			c1.492-0.283,3.338-0.717,4.043-1.786c1.45-2.197,0.391-5.449,0.846-8.65c0.495-3.482,0.492-17.412-1.034-19.181
			C-90.159,119.723-92.206,119.241-94.542,119.271 M-123.972,171.925c0.031,0.063,0.063,0.125,0.094,0.188
			C-123.91,172.05-123.941,171.988-123.972,171.925 M-124.066,172.583c0,0.157,0,0.313,0,0.47
			C-124.066,172.897-124.066,172.74-124.066,172.583 M-124.066,173.335c0,0.125,0,0.251,0,0.376
			C-124.066,173.586-124.066,173.461-124.066,173.335 M117.578,173.335c0.031,0.063,0.063,0.125,0.094,0.188
			C117.641,173.461,117.61,173.398,117.578,173.335 M117.578,173.617c0.031,0.063,0.063,0.125,0.094,0.188
			C117.641,173.743,117.61,173.68,117.578,173.617 M-124.066,173.994c0.031,0.063,0.063,0.125,0.094,0.188
			C-124.004,174.119-124.035,174.056-124.066,173.994 M117.578,173.994c0.031,0.094,0.063,0.188,0.094,0.282
			c-0.031,0-0.063,0-0.094,0C117.578,174.182,117.578,174.088,117.578,173.994 M-123.502,174.84
			c1.132,0.517,3.315,0.282,4.889,0.282c4.168,0,8.337,0,12.505,0c14.102,0,28.209,0,42.311,0
			c60.483,0.031,120.985,0.063,181.469,0.094c-0.031,1.348-0.063,2.696-0.094,4.043c-60.186-0.025-119.55,0.187-179.682,0.188
			c-15.325-0.031-30.654-0.063-45.978-0.094c-4.231,0-8.463,0-12.693,0c-1.054-0.158-2.577,0.294-3.197-0.282
			C-123.592,177.687-123.885,175.698-123.502,174.84 M-123.878,187.251c0.031-1.379,0.063-2.758,0.094-4.137
			c60.577,0,121.173,0,181.751,0c14.98,0,29.964,0,44.944,0c3.635,0,7.272,0,10.907,0c0.993,0,3.293-0.309,3.761,0.282
			c0,1.285,0,2.57,0,3.855c-36.846,0.006-73.496,0.094-110.48,0.094c-18.114-0.031-36.233-0.063-54.347-0.094
			C-72.789,187.251-98.337,187.251-123.878,187.251 M-70.66,192.517c8.817,0.007,14.281,3.975,15.984,11.095
			c1.238,5.176,0.282,11.678,0.282,17.207c0,5.219,0.243,11.001-0.564,15.42c-0.125,1.097-0.251,2.194-0.376,3.291
			c-1.14,3.241-4.579,6.611-7.71,7.898c-2.1,0.376-4.2,0.752-6.3,1.128c-3.352,0.568-7.013-0.763-9.026-1.786
			c-1.334-0.678-2.326-1.016-3.479-1.786c-5.617-3.751-4.607-15.089-4.607-24.447c0-4.724-0.73-12.766,0.376-16.642
			c1.52-5.328,4.449-8.919,9.685-10.531C-74.817,192.877-72.151,193.086-70.66,192.517 M-111.373,247.521
			c-1.94,0.023-12.002,0.202-12.317-0.188c0-13.476,0-26.955,0-40.431c0-2.446-0.454-12.461,0.094-13.446
			c10.655,0,21.313,0,31.969,0c0.259,0.165,0,2.232,0,3.009c0,3.165,0,6.331,0,9.497c0,9.809,0,19.621,0,29.43
			c0,2.671,0.515,10.538-0.188,12.129c-4.074-0.031-8.149-0.063-12.223-0.094c0-9.684,0-19.37,0-29.054c0-3.322,0-6.645,0-9.967
			c-0.031-1.473-0.063-2.946-0.094-4.419c-1.83-0.081-5.355-0.385-7.052,0.188c0,0.031,0,0.063,0,0.094
			C-111.247,218.685-111.31,233.106-111.373,247.521 M-48.188,193.363c9.433,0.031,18.869,0.063,28.302,0.094
			c0,3.479,0,6.958,0,10.437c-5.453,0-10.907,0-16.36,0c-0.094,0.094-0.188,0.188-0.282,0.282c0.031,3.541,0.063,7.084,0.094,10.625
			c8.764,0.254,15.496,2.109,18.147,8.65c3.577,8.827,0.388,19.904-6.112,22.848c-4.287,1.941-12.437,1.316-18.429,1.316
			c-1.135,0-5.689,0.27-6.206-0.188c0.031-17.988,0.063-35.982,0.094-53.97C-48.689,193.425-48.439,193.394-48.188,193.363
			 M13.963,214.518c0.19,2.863,0.589,8.375-0.094,10.531c-4.45,0.031-8.901,0.063-13.352,0.094
			c-0.019,2.444-0.537,10.433,0.188,12.035c5.265,0.031,10.531,0.063,15.796,0.094c0,3.385,0,6.77,0,10.155
			c-0.063,0.063-0.125,0.125-0.188,0.188c-9.464-0.031-18.931-0.063-28.396-0.094c0-18.02,0-36.045,0-54.064
			c9.339,0,18.681,0,28.02,0c-0.031,3.541-0.063,7.084-0.094,10.625c-5.108,0-10.218,0-15.326,0
			c-0.02,2.178-0.462,9.003,0.188,10.437C5.124,214.518,9.544,214.518,13.963,214.518 M61.069,237.273c0,5.014,0,10.03,0,15.044
			c0,1.225,0.47,4.509-0.188,5.265c-3.479,0-6.958,0-10.437,0c0.022-1.522,0.354-9.353-0.188-9.967c-6.393,0-12.788,0-19.181,0
			c-0.031,3.353-0.063,6.707-0.094,10.061c-3.541-0.031-7.084-0.063-10.625-0.094c0.031-6.769,0.063-13.54,0.094-20.309
			c1.128-0.094,2.257-0.188,3.385-0.282c0.721-3.197,1.442-6.394,2.163-9.591c0.376-3.917,0.752-7.836,1.128-11.753
			c0.157-7.396,0.313-14.794,0.47-22.19c7.49-0.031,14.982-0.063,22.472-0.094c1.309,0,7.031-0.319,7.616,0.188
			c0,11.219,0,22.442,0,33.661c0,2.414-0.613,8.171,0.188,9.967C58.938,237.21,60.004,237.241,61.069,237.273 M100.748,247.615
			c-4.356,0-8.713,0-13.07,0c-0.031-0.063-0.063-0.125-0.094-0.188c-0.345-3.103-0.69-6.206-1.034-9.309
			c-0.93-0.264-8.366-0.18-8.65,0.188c-0.439,3.103-0.878,6.206-1.316,9.309c-4.199,0-8.4,0-12.599,0
			c3.322-18.051,6.645-36.107,9.967-54.159c3.917-0.031,7.836-0.063,11.753-0.094c1.503,0,3.93-0.329,5.077,0.188
			c2.35,12.723,4.701,25.451,7.052,38.174C98.907,236.287,100.627,242.714,100.748,247.615 M106.201,193.363
			c2.319-0.019,9.76-0.502,11.283,0.188c-0.031,7.145-0.063,14.293-0.094,21.438c-0.815,5.61-1.63,11.221-2.445,16.83
			c-0.063,0.031-0.125,0.063-0.188,0.094c-1.468,0.289-4.772,0.528-6.112-0.094c-0.783-5.234-1.567-10.469-2.351-15.702
			c-0.063-4.325-0.125-8.651-0.188-12.975C106.107,199.896,105.481,195.985,106.201,193.363 M-71.036,202.107
			c-0.928,0.45-1.775,0.747-2.351,1.504c-0.876,1.152-0.564,4.124-0.564,6.018c0,4.951,0,9.904,0,14.856
			c0.031,2.319,0.063,4.639,0.094,6.958c0.545,3.623-0.748,8.414,4.137,7.428c2.827-0.571,3.596-4.796,3.009-8.65
			c-0.031-6.487-0.063-12.976-0.094-19.463C-66.805,206.03-66.303,202.21-71.036,202.107 M39.161,202.577
			c-0.094,2.194-0.188,4.388-0.282,6.582c-0.376,5.547-0.752,11.096-1.128,16.642c-0.345,2.35-0.69,4.701-1.034,7.052
			c-0.262,1.239-1.008,2.924-0.752,4.231c0.063,0,0.125,0,0.188,0c3.009,0.031,6.018,0.063,9.026,0.094
			c-0.031-11.533-0.063-23.069-0.094-34.601C43.111,202.577,41.136,202.577,39.161,202.577 M85.14,228.246
			c0.048-3.483-0.419-7.056-1.034-10.155c-0.251-2.382-0.501-4.764-0.752-7.146c-0.416-2.105,0.112-6.757-0.94-8.086
			c-0.031,0-0.063,0-0.094,0c-0.031,0.063-0.063,0.125-0.094,0.188c-1.133,5.294-0.91,11.016-1.975,16.548
			c-0.367,1.91-1.404,6.847-0.94,8.65C81.253,228.246,83.197,228.246,85.14,228.246 M-35.306,223.545
			c-0.492,0.196-0.866,0.229-1.222,0.47c0.031,4.795,0.063,9.591,0.094,14.386c1.857,0.132,5.042,0.157,5.924-1.034
			c1.528-2.065,1.62-11.508-0.47-12.881C-32.042,223.788-33.588,223.507-35.306,223.545 M106.295,234.452
			c2.449-0.016,3.885,0.247,5.924,0.564c1.755,0.031,3.51,0.063,5.265,0.094c-0.031,4.168-0.063,8.337-0.094,12.505
			c-2.319,0.019-9.76,0.502-11.283-0.188C106.088,244.827,105.527,236.153,106.295,234.452z"/>
	</g>
</g>
</svg>
